<?xml version="1.0" encoding="UTF-8" standalone="no"?>
<!DOCTYPE svg PUBLIC "-//W3C//DTD SVG 1.1//EN" "http://www.w3.org/Graphics/SVG/1.1/DTD/svg11.dtd">
<svg width="100%" height="100%" viewBox="0 0 5448 6297" version="1.1" xmlns="http://www.w3.org/2000/svg" xmlns:xlink="http://www.w3.org/1999/xlink" xml:space="preserve" xmlns:serif="http://www.serif.com/" style="fill-rule:evenodd;clip-rule:evenodd;stroke-miterlimit:10;">
    <g transform="matrix(1,0,0,1,0,2.466981)">
        <rect x="1342.279" y="5823" width="217" height="217" style="fill:rgb(76,76,76);"/>
    </g>
    <g id="carraux">
        <rect x="801" y="1119" width="569.8" height="637.8" style="fill:rgb(246,246,246);stroke:rgb(29,29,27);stroke-width:2.83px;"/>
        <rect x="1438.8" y="1119" width="569.8" height="637.8" style="fill:rgb(246,246,246);stroke:rgb(29,29,27);stroke-width:2.83px;"/>
        <rect x="801" y="1837.1" width="569.8" height="637.8" style="fill:rgb(246,246,246);stroke:rgb(29,29,27);stroke-width:2.83px;"/>
        <rect x="1438.8" y="1837.1" width="569.8" height="637.8" style="fill:rgb(246,246,246);stroke:rgb(29,29,27);stroke-width:2.83px;"/>
        <rect x="801" y="2555.2" width="569.8" height="637.8" style="fill:rgb(246,246,246);stroke:rgb(29,29,27);stroke-width:2.83px;"/>
        <rect x="1438.8" y="2555.2" width="569.8" height="637.8" style="fill:rgb(246,246,246);stroke:rgb(29,29,27);stroke-width:2.83px;"/>
        <rect x="801" y="3273.3" width="569.8" height="637.8" style="fill:rgb(246,246,246);stroke:rgb(29,29,27);stroke-width:2.83px;"/>
        <rect x="1438.8" y="3273.3" width="569.8" height="637.8" style="fill:rgb(246,246,246);stroke:rgb(29,29,27);stroke-width:2.83px;"/>
        <rect x="801" y="3991.4" width="569.8" height="637.8" style="fill:rgb(246,246,246);stroke:rgb(29,29,27);stroke-width:2.83px;"/>
        <rect x="1438.8" y="3991.4" width="569.8" height="637.8" style="fill:rgb(246,246,246);stroke:rgb(29,29,27);stroke-width:2.83px;"/>
        <rect x="801" y="4709.5" width="569.8" height="637.8" style="fill:rgb(246,246,246);stroke:rgb(29,29,27);stroke-width:2.83px;"/>
        <rect x="1438.8" y="4709.5" width="569.8" height="637.8" style="fill:rgb(246,246,246);stroke:rgb(29,29,27);stroke-width:2.83px;"/>
        <path d="M1370.8,1038.7L801,1038.7C801,790 910.4,549.6 1059,400.9L1370.8,400.9L1370.8,1038.7Z" style="fill:rgb(246,246,246);fill-rule:nonzero;stroke:rgb(29,29,27);stroke-width:2.83px;"/>
        <rect x="1438.8" y="400.9" width="569.8" height="637.8" style="fill:rgb(246,246,246);stroke:rgb(29,29,27);stroke-width:2.83px;"/>
        <rect x="2248.1" y="1119" width="569.8" height="637.8" style="fill:rgb(246,246,246);stroke:rgb(29,29,27);stroke-width:2.83px;"/>
        <rect x="2885.9" y="1119" width="569.8" height="637.8" style="fill:rgb(246,246,246);stroke:rgb(29,29,27);stroke-width:2.83px;"/>
        <rect x="2248.1" y="1837.1" width="569.8" height="637.8" style="fill:rgb(246,246,246);stroke:rgb(29,29,27);stroke-width:2.83px;"/>
        <rect x="2885.9" y="1837.1" width="569.8" height="637.8" style="fill:rgb(246,246,246);stroke:rgb(29,29,27);stroke-width:2.83px;"/>
        <rect x="2248.1" y="2555.2" width="569.8" height="637.8" style="fill:rgb(246,246,246);stroke:rgb(29,29,27);stroke-width:2.83px;"/>
        <rect x="2885.9" y="2555.2" width="569.8" height="637.8" style="fill:rgb(246,246,246);stroke:rgb(29,29,27);stroke-width:2.83px;"/>
        <rect x="2248.1" y="3273.3" width="569.8" height="637.8" style="fill:rgb(246,246,246);stroke:rgb(29,29,27);stroke-width:2.83px;"/>
        <rect x="2885.9" y="3273.3" width="569.8" height="637.8" style="fill:rgb(246,246,246);stroke:rgb(29,29,27);stroke-width:2.83px;"/>
        <rect x="2248.1" y="3991.4" width="569.8" height="637.8" style="fill:rgb(246,246,246);stroke:rgb(29,29,27);stroke-width:2.83px;"/>
        <rect x="2885.9" y="3991.4" width="569.8" height="637.8" style="fill:rgb(246,246,246);stroke:rgb(29,29,27);stroke-width:2.83px;"/>
        <rect x="2248.1" y="4709.5" width="569.8" height="637.8" style="fill:rgb(246,246,246);stroke:rgb(29,29,27);stroke-width:2.83px;"/>
        <rect x="2885.9" y="4709.5" width="569.8" height="637.8" style="fill:rgb(246,246,246);stroke:rgb(29,29,27);stroke-width:2.83px;"/>
        <rect x="2248.1" y="400.9" width="569.8" height="637.8" style="fill:rgb(246,246,246);stroke:rgb(29,29,27);stroke-width:2.83px;"/>
        <rect x="2885.9" y="400.9" width="569.8" height="637.8" style="fill:rgb(246,246,246);stroke:rgb(29,29,27);stroke-width:2.83px;"/>
        <rect x="3695.2" y="1119" width="569.8" height="637.8" style="fill:rgb(246,246,246);stroke:rgb(29,29,27);stroke-width:2.83px;"/>
        <rect x="4333" y="1119" width="569.8" height="637.8" style="fill:rgb(246,246,246);stroke:rgb(29,29,27);stroke-width:2.83px;"/>
        <rect x="3695.2" y="1837.1" width="569.8" height="637.8" style="fill:rgb(246,246,246);stroke:rgb(29,29,27);stroke-width:2.83px;"/>
        <rect x="4333" y="1837.1" width="569.8" height="637.8" style="fill:rgb(246,246,246);stroke:rgb(29,29,27);stroke-width:2.83px;"/>
        <rect x="3695.2" y="2555.2" width="569.8" height="637.8" style="fill:rgb(246,246,246);stroke:rgb(29,29,27);stroke-width:2.83px;"/>
        <rect x="4333" y="2555.2" width="569.8" height="637.8" style="fill:rgb(246,246,246);stroke:rgb(29,29,27);stroke-width:2.83px;"/>
        <rect x="3695.2" y="3273.3" width="569.8" height="637.8" style="fill:rgb(246,246,246);stroke:rgb(29,29,27);stroke-width:2.83px;"/>
        <rect x="4333" y="3273.3" width="569.8" height="637.8" style="fill:rgb(246,246,246);stroke:rgb(29,29,27);stroke-width:2.83px;"/>
        <rect x="3695.2" y="3991.4" width="569.8" height="637.8" style="fill:rgb(246,246,246);stroke:rgb(29,29,27);stroke-width:2.83px;"/>
        <rect x="4333" y="3991.4" width="569.8" height="637.8" style="fill:rgb(246,246,246);stroke:rgb(29,29,27);stroke-width:2.83px;"/>
        <rect x="3695.2" y="4709.5" width="569.8" height="637.8" style="fill:rgb(246,246,246);stroke:rgb(29,29,27);stroke-width:2.83px;"/>
        <rect x="4333" y="4709.5" width="569.8" height="637.8" style="fill:rgb(246,246,246);stroke:rgb(29,29,27);stroke-width:2.83px;"/>
        <rect x="3695.2" y="400.9" width="569.8" height="637.8" style="fill:rgb(246,246,246);stroke:rgb(29,29,27);stroke-width:2.83px;"/>
        <path d="M4333,1038.7L4902.8,1038.7C4902.8,790 4793.4,549.6 4644.8,400.9L4333,400.9L4333,1038.7Z" style="fill:rgb(246,246,246);fill-rule:nonzero;stroke:rgb(29,29,27);stroke-width:2.83px;"/>
    </g>
    <g id="bandes">
        <rect x="1071.7" y="511.9" width="28.3" height="4724.4" style="fill:rgb(218,218,218);"/>
        <rect x="1078.8" y="552" width="14.2" height="14.2" style="fill:rgb(157,157,156);"/>
        <rect x="1078.8" y="646.5" width="14.2" height="14.2" style="fill:rgb(29,29,27);"/>
        <rect x="1078.8" y="741" width="14.2" height="14.2" style="fill:rgb(157,157,156);"/>
        <rect x="1078.8" y="835.5" width="14.2" height="14.2" style="fill:rgb(157,157,156);"/>
        <rect x="1078.8" y="930" width="14.2" height="14.2" style="fill:rgb(157,157,156);"/>
        <rect x="1078.8" y="1024.5" width="14.2" height="14.2" style="fill:rgb(157,157,156);"/>
        <rect x="1078.8" y="1119" width="14.2" height="14.2" style="fill:rgb(157,157,156);"/>
        <rect x="1078.8" y="1213.5" width="14.2" height="14.2" style="fill:rgb(157,157,156);"/>
        <rect x="1078.8" y="1308" width="14.2" height="14.2" style="fill:rgb(157,157,156);"/>
        <rect x="1078.8" y="1402.4" width="14.2" height="14.2" style="fill:rgb(29,29,27);"/>
        <rect x="1078.8" y="1496.9" width="14.2" height="14.2" style="fill:rgb(157,157,156);"/>
        <rect x="1078.8" y="1591.4" width="14.2" height="14.2" style="fill:rgb(157,157,156);"/>
        <rect x="1078.8" y="1685.9" width="14.2" height="14.2" style="fill:rgb(157,157,156);"/>
        <rect x="1078.8" y="1780.4" width="14.2" height="14.2" style="fill:rgb(157,157,156);"/>
        <rect x="1078.8" y="1874.9" width="14.2" height="14.2" style="fill:rgb(157,157,156);"/>
        <rect x="1078.8" y="1969.4" width="14.2" height="14.2" style="fill:rgb(157,157,156);"/>
        <rect x="1078.8" y="2063.9" width="14.2" height="14.2" style="fill:rgb(157,157,156);"/>
        <rect x="1078.8" y="2158.3" width="14.2" height="14.2" style="fill:rgb(29,29,27);"/>
        <rect x="1078.8" y="2252.8" width="14.2" height="14.2" style="fill:rgb(157,157,156);"/>
        <rect x="1078.8" y="2347.3" width="14.2" height="14.2" style="fill:rgb(157,157,156);"/>
        <rect x="1078.8" y="2441.8" width="14.2" height="14.2" style="fill:rgb(157,157,156);"/>
        <rect x="1078.8" y="2536.3" width="14.2" height="14.2" style="fill:rgb(157,157,156);"/>
        <rect x="1078.8" y="2630.8" width="14.2" height="14.2" style="fill:rgb(157,157,156);"/>
        <rect x="1078.8" y="2725.3" width="14.2" height="14.2" style="fill:rgb(157,157,156);"/>
        <rect x="1078.8" y="2819.8" width="14.2" height="14.2" style="fill:rgb(157,157,156);"/>
        <rect x="1078.8" y="2914.3" width="14.2" height="14.2" style="fill:rgb(29,29,27);"/>
        <rect x="1078.8" y="3008.7" width="14.2" height="14.2" style="fill:rgb(157,157,156);"/>
        <rect x="1078.8" y="3103.2" width="14.2" height="14.2" style="fill:rgb(157,157,156);"/>
        <rect x="1078.8" y="3197.7" width="14.2" height="14.2" style="fill:rgb(157,157,156);"/>
        <rect x="1078.8" y="3292.2" width="14.2" height="14.2" style="fill:rgb(157,157,156);"/>
        <rect x="1078.8" y="3386.7" width="14.2" height="14.2" style="fill:rgb(157,157,156);"/>
        <rect x="1078.8" y="3481.2" width="14.2" height="14.2" style="fill:rgb(157,157,156);"/>
        <rect x="1078.8" y="3575.7" width="14.2" height="14.2" style="fill:rgb(157,157,156);"/>
        <rect x="1078.8" y="3670.2" width="14.2" height="14.2" style="fill:rgb(29,29,27);"/>
        <rect x="1078.8" y="3764.6" width="14.2" height="14.2" style="fill:rgb(157,157,156);"/>
        <rect x="1078.8" y="3859.1" width="14.2" height="14.2" style="fill:rgb(157,157,156);"/>
        <rect x="1078.8" y="3953.6" width="14.2" height="14.2" style="fill:rgb(157,157,156);"/>
        <rect x="1078.8" y="4048.1" width="14.2" height="14.2" style="fill:rgb(157,157,156);"/>
        <rect x="1078.8" y="4142.6" width="14.2" height="14.2" style="fill:rgb(157,157,156);"/>
        <rect x="1078.8" y="4237.1" width="14.2" height="14.2" style="fill:rgb(157,157,156);"/>
        <rect x="1078.8" y="4331.6" width="14.2" height="14.2" style="fill:rgb(157,157,156);"/>
        <rect x="1078.8" y="4426.1" width="14.2" height="14.2" style="fill:rgb(29,29,27);"/>
        <rect x="1078.8" y="4520.5" width="14.2" height="14.2" style="fill:rgb(157,157,156);"/>
        <rect x="1078.8" y="4615" width="14.2" height="14.2" style="fill:rgb(157,157,156);"/>
        <rect x="1078.8" y="4709.5" width="14.2" height="14.2" style="fill:rgb(157,157,156);"/>
        <rect x="1078.8" y="4804" width="14.2" height="14.2" style="fill:rgb(157,157,156);"/>
        <rect x="1078.8" y="4898.5" width="14.2" height="14.2" style="fill:rgb(157,157,156);"/>
        <rect x="1078.8" y="4990.7" width="14.2" height="14.2" style="fill:rgb(157,157,156);"/>
        <rect x="1078.8" y="5085.2" width="14.2" height="14.2" style="fill:rgb(29,29,27);"/>
        <rect x="1078.8" y="5179.7" width="14.2" height="14.2" style="fill:rgb(157,157,156);"/>
        <rect x="1709.5" y="417.4" width="28.3" height="4724.4" style="fill:rgb(218,218,218);"/>
        <rect x="1716.6" y="552" width="14.2" height="14.2" style="fill:rgb(157,157,156);"/>
        <rect x="1716.6" y="457.6" width="14.2" height="14.2" style="fill:rgb(157,157,156);"/>
        <rect x="1716.6" y="646.5" width="14.2" height="14.2" style="fill:rgb(29,29,27);"/>
        <rect x="1716.6" y="741" width="14.2" height="14.2" style="fill:rgb(157,157,156);"/>
        <rect x="1716.6" y="835.5" width="14.2" height="14.2" style="fill:rgb(157,157,156);"/>
        <rect x="1716.6" y="930" width="14.2" height="14.2" style="fill:rgb(157,157,156);"/>
        <rect x="1716.6" y="1024.5" width="14.2" height="14.2" style="fill:rgb(157,157,156);"/>
        <rect x="1716.6" y="1119" width="14.2" height="14.2" style="fill:rgb(157,157,156);"/>
        <rect x="1716.6" y="1213.5" width="14.2" height="14.2" style="fill:rgb(157,157,156);"/>
        <rect x="1716.6" y="1308" width="14.2" height="14.2" style="fill:rgb(157,157,156);"/>
        <rect x="1716.6" y="1402.4" width="14.2" height="14.2" style="fill:rgb(29,29,27);"/>
        <rect x="1716.6" y="1496.9" width="14.2" height="14.2" style="fill:rgb(157,157,156);"/>
        <rect x="1716.6" y="1591.4" width="14.2" height="14.2" style="fill:rgb(157,157,156);"/>
        <rect x="1716.6" y="1685.9" width="14.2" height="14.2" style="fill:rgb(157,157,156);"/>
        <rect x="1716.6" y="1780.4" width="14.2" height="14.2" style="fill:rgb(157,157,156);"/>
        <rect x="1716.6" y="1874.9" width="14.2" height="14.2" style="fill:rgb(157,157,156);"/>
        <rect x="1716.6" y="1969.4" width="14.2" height="14.2" style="fill:rgb(157,157,156);"/>
        <rect x="1716.6" y="2063.9" width="14.2" height="14.2" style="fill:rgb(157,157,156);"/>
        <rect x="1716.6" y="2158.3" width="14.2" height="14.2" style="fill:rgb(29,29,27);"/>
        <rect x="1716.6" y="2252.8" width="14.2" height="14.2" style="fill:rgb(157,157,156);"/>
        <rect x="1716.6" y="2347.3" width="14.2" height="14.2" style="fill:rgb(157,157,156);"/>
        <rect x="1716.6" y="2441.8" width="14.2" height="14.2" style="fill:rgb(157,157,156);"/>
        <rect x="1716.6" y="2536.3" width="14.2" height="14.2" style="fill:rgb(157,157,156);"/>
        <rect x="1716.6" y="2630.8" width="14.2" height="14.2" style="fill:rgb(157,157,156);"/>
        <rect x="1716.6" y="2725.3" width="14.2" height="14.2" style="fill:rgb(157,157,156);"/>
        <rect x="1716.6" y="2819.8" width="14.2" height="14.2" style="fill:rgb(157,157,156);"/>
        <rect x="1716.6" y="2914.3" width="14.2" height="14.2" style="fill:rgb(29,29,27);"/>
        <rect x="1716.6" y="3008.7" width="14.2" height="14.2" style="fill:rgb(157,157,156);"/>
        <rect x="1716.6" y="3103.2" width="14.2" height="14.2" style="fill:rgb(157,157,156);"/>
        <rect x="1716.6" y="3197.7" width="14.2" height="14.2" style="fill:rgb(157,157,156);"/>
        <rect x="1716.6" y="3292.2" width="14.2" height="14.2" style="fill:rgb(157,157,156);"/>
        <rect x="1716.6" y="3386.7" width="14.2" height="14.2" style="fill:rgb(157,157,156);"/>
        <rect x="1716.6" y="3481.2" width="14.2" height="14.2" style="fill:rgb(157,157,156);"/>
        <rect x="1716.6" y="3575.7" width="14.2" height="14.2" style="fill:rgb(157,157,156);"/>
        <rect x="1716.6" y="3670.2" width="14.2" height="14.2" style="fill:rgb(29,29,27);"/>
        <rect x="1716.6" y="3764.6" width="14.2" height="14.2" style="fill:rgb(157,157,156);"/>
        <rect x="1716.6" y="3859.1" width="14.2" height="14.2" style="fill:rgb(157,157,156);"/>
        <rect x="1716.6" y="3953.6" width="14.2" height="14.2" style="fill:rgb(157,157,156);"/>
        <rect x="1716.6" y="4048.1" width="14.2" height="14.2" style="fill:rgb(157,157,156);"/>
        <rect x="1716.6" y="4142.6" width="14.2" height="14.2" style="fill:rgb(157,157,156);"/>
        <rect x="1716.6" y="4237.1" width="14.2" height="14.2" style="fill:rgb(157,157,156);"/>
        <rect x="1716.6" y="4331.6" width="14.2" height="14.2" style="fill:rgb(157,157,156);"/>
        <rect x="1716.6" y="4426.1" width="14.2" height="14.2" style="fill:rgb(29,29,27);"/>
        <rect x="1716.6" y="4520.5" width="14.2" height="14.2" style="fill:rgb(157,157,156);"/>
        <rect x="1716.6" y="4615" width="14.2" height="14.2" style="fill:rgb(157,157,156);"/>
        <rect x="1716.6" y="4709.5" width="14.2" height="14.2" style="fill:rgb(157,157,156);"/>
        <rect x="1716.6" y="4804" width="14.2" height="14.2" style="fill:rgb(157,157,156);"/>
        <rect x="1716.6" y="4898.5" width="14.2" height="14.2" style="fill:rgb(157,157,156);"/>
        <rect x="1716.6" y="4990.7" width="14.2" height="14.2" style="fill:rgb(157,157,156);"/>
        <rect x="1716.6" y="5085.2" width="14.2" height="14.2" style="fill:rgb(29,29,27);"/>
        <rect x="2518.8" y="417.4" width="28.3" height="4724.4" style="fill:rgb(218,218,218);"/>
        <rect x="2525.9" y="552" width="14.2" height="14.2" style="fill:rgb(157,157,156);"/>
        <rect x="2525.9" y="457.6" width="14.2" height="14.2" style="fill:rgb(157,157,156);"/>
        <rect x="2525.9" y="646.5" width="14.2" height="14.2" style="fill:rgb(29,29,27);"/>
        <rect x="2525.9" y="741" width="14.2" height="14.2" style="fill:rgb(157,157,156);"/>
        <rect x="2525.9" y="835.5" width="14.2" height="14.2" style="fill:rgb(157,157,156);"/>
        <rect x="2525.9" y="930" width="14.2" height="14.2" style="fill:rgb(157,157,156);"/>
        <rect x="2525.9" y="1024.5" width="14.2" height="14.2" style="fill:rgb(157,157,156);"/>
        <rect x="2525.9" y="1119" width="14.2" height="14.2" style="fill:rgb(157,157,156);"/>
        <rect x="2525.9" y="1213.5" width="14.2" height="14.2" style="fill:rgb(157,157,156);"/>
        <rect x="2525.9" y="1308" width="14.2" height="14.2" style="fill:rgb(157,157,156);"/>
        <rect x="2525.9" y="1402.4" width="14.2" height="14.2" style="fill:rgb(29,29,27);"/>
        <rect x="2525.9" y="1496.9" width="14.2" height="14.2" style="fill:rgb(157,157,156);"/>
        <rect x="2525.9" y="1591.4" width="14.2" height="14.2" style="fill:rgb(157,157,156);"/>
        <rect x="2525.9" y="1685.9" width="14.2" height="14.2" style="fill:rgb(157,157,156);"/>
        <rect x="2525.9" y="1780.4" width="14.2" height="14.2" style="fill:rgb(157,157,156);"/>
        <rect x="2525.9" y="1874.9" width="14.2" height="14.2" style="fill:rgb(157,157,156);"/>
        <rect x="2525.9" y="1969.4" width="14.2" height="14.2" style="fill:rgb(157,157,156);"/>
        <rect x="2525.9" y="2063.9" width="14.2" height="14.2" style="fill:rgb(157,157,156);"/>
        <rect x="2525.9" y="2158.3" width="14.2" height="14.2" style="fill:rgb(29,29,27);"/>
        <rect x="2525.9" y="2252.8" width="14.2" height="14.2" style="fill:rgb(157,157,156);"/>
        <rect x="2525.9" y="2347.3" width="14.2" height="14.2" style="fill:rgb(157,157,156);"/>
        <rect x="2525.9" y="2441.8" width="14.2" height="14.2" style="fill:rgb(157,157,156);"/>
        <rect x="2525.9" y="2536.3" width="14.2" height="14.2" style="fill:rgb(157,157,156);"/>
        <rect x="2525.9" y="2630.8" width="14.2" height="14.2" style="fill:rgb(157,157,156);"/>
        <rect x="2525.9" y="2725.3" width="14.2" height="14.2" style="fill:rgb(157,157,156);"/>
        <rect x="2525.9" y="2819.8" width="14.2" height="14.2" style="fill:rgb(157,157,156);"/>
        <rect x="2525.9" y="2914.3" width="14.2" height="14.2" style="fill:rgb(29,29,27);"/>
        <rect x="2525.9" y="3008.7" width="14.2" height="14.2" style="fill:rgb(157,157,156);"/>
        <rect x="2525.9" y="3103.2" width="14.2" height="14.2" style="fill:rgb(157,157,156);"/>
        <rect x="2525.9" y="3197.7" width="14.2" height="14.2" style="fill:rgb(157,157,156);"/>
        <rect x="2525.9" y="3292.2" width="14.2" height="14.2" style="fill:rgb(157,157,156);"/>
        <rect x="2525.9" y="3386.7" width="14.2" height="14.2" style="fill:rgb(157,157,156);"/>
        <rect x="2525.9" y="3481.2" width="14.2" height="14.2" style="fill:rgb(157,157,156);"/>
        <rect x="2525.9" y="3575.7" width="14.2" height="14.2" style="fill:rgb(157,157,156);"/>
        <rect x="2525.9" y="3670.2" width="14.2" height="14.2" style="fill:rgb(29,29,27);"/>
        <rect x="2525.9" y="3764.6" width="14.2" height="14.2" style="fill:rgb(157,157,156);"/>
        <rect x="2525.9" y="3859.1" width="14.2" height="14.2" style="fill:rgb(157,157,156);"/>
        <rect x="2525.9" y="3953.6" width="14.2" height="14.2" style="fill:rgb(157,157,156);"/>
        <rect x="2525.9" y="4048.1" width="14.2" height="14.2" style="fill:rgb(157,157,156);"/>
        <rect x="2525.9" y="4142.6" width="14.2" height="14.2" style="fill:rgb(157,157,156);"/>
        <rect x="2525.9" y="4237.1" width="14.2" height="14.2" style="fill:rgb(157,157,156);"/>
        <rect x="2525.9" y="4331.6" width="14.2" height="14.2" style="fill:rgb(157,157,156);"/>
        <rect x="2525.9" y="4426.1" width="14.2" height="14.2" style="fill:rgb(29,29,27);"/>
        <rect x="2525.9" y="4520.5" width="14.2" height="14.2" style="fill:rgb(157,157,156);"/>
        <rect x="2525.9" y="4615" width="14.2" height="14.2" style="fill:rgb(157,157,156);"/>
        <rect x="2525.9" y="4709.5" width="14.2" height="14.2" style="fill:rgb(157,157,156);"/>
        <rect x="2525.9" y="4804" width="14.2" height="14.2" style="fill:rgb(157,157,156);"/>
        <rect x="2525.9" y="4898.5" width="14.2" height="14.2" style="fill:rgb(157,157,156);"/>
        <rect x="2525.9" y="4990.7" width="14.2" height="14.2" style="fill:rgb(157,157,156);"/>
        <rect x="2525.9" y="5085.2" width="14.2" height="14.2" style="fill:rgb(29,29,27);"/>
        <rect x="3156.6" y="417.4" width="28.3" height="4724.4" style="fill:rgb(218,218,218);"/>
        <rect x="3163.7" y="552" width="14.2" height="14.2" style="fill:rgb(157,157,156);"/>
        <rect x="3163.7" y="457.6" width="14.2" height="14.2" style="fill:rgb(157,157,156);"/>
        <rect x="3163.7" y="646.5" width="14.2" height="14.2" style="fill:rgb(29,29,27);"/>
        <rect x="3163.7" y="741" width="14.2" height="14.2" style="fill:rgb(157,157,156);"/>
        <rect x="3163.7" y="835.5" width="14.2" height="14.2" style="fill:rgb(157,157,156);"/>
        <rect x="3163.7" y="930" width="14.2" height="14.2" style="fill:rgb(157,157,156);"/>
        <rect x="3163.7" y="1024.5" width="14.2" height="14.2" style="fill:rgb(157,157,156);"/>
        <rect x="3163.7" y="1119" width="14.2" height="14.2" style="fill:rgb(157,157,156);"/>
        <rect x="3163.7" y="1213.5" width="14.2" height="14.2" style="fill:rgb(157,157,156);"/>
        <rect x="3163.7" y="1308" width="14.2" height="14.2" style="fill:rgb(157,157,156);"/>
        <rect x="3163.7" y="1402.4" width="14.2" height="14.2" style="fill:rgb(29,29,27);"/>
        <rect x="3163.7" y="1496.9" width="14.2" height="14.2" style="fill:rgb(157,157,156);"/>
        <rect x="3163.7" y="1591.4" width="14.2" height="14.2" style="fill:rgb(157,157,156);"/>
        <rect x="3163.7" y="1685.9" width="14.2" height="14.2" style="fill:rgb(157,157,156);"/>
        <rect x="3163.7" y="1780.4" width="14.2" height="14.2" style="fill:rgb(157,157,156);"/>
        <rect x="3163.7" y="1874.9" width="14.2" height="14.2" style="fill:rgb(157,157,156);"/>
        <rect x="3163.7" y="1969.4" width="14.2" height="14.2" style="fill:rgb(157,157,156);"/>
        <rect x="3163.7" y="2063.9" width="14.2" height="14.2" style="fill:rgb(157,157,156);"/>
        <rect x="3163.7" y="2158.3" width="14.2" height="14.2" style="fill:rgb(29,29,27);"/>
        <rect x="3163.7" y="2252.8" width="14.2" height="14.2" style="fill:rgb(157,157,156);"/>
        <rect x="3163.7" y="2347.3" width="14.2" height="14.2" style="fill:rgb(157,157,156);"/>
        <rect x="3163.7" y="2441.8" width="14.2" height="14.2" style="fill:rgb(157,157,156);"/>
        <rect x="3163.7" y="2536.3" width="14.2" height="14.2" style="fill:rgb(157,157,156);"/>
        <rect x="3163.7" y="2630.8" width="14.2" height="14.2" style="fill:rgb(157,157,156);"/>
        <rect x="3163.7" y="2725.3" width="14.2" height="14.2" style="fill:rgb(157,157,156);"/>
        <rect x="3163.7" y="2819.8" width="14.2" height="14.2" style="fill:rgb(157,157,156);"/>
        <rect x="3163.7" y="2914.3" width="14.2" height="14.2" style="fill:rgb(29,29,27);"/>
        <rect x="3163.7" y="3008.7" width="14.2" height="14.2" style="fill:rgb(157,157,156);"/>
        <rect x="3163.7" y="3103.2" width="14.2" height="14.2" style="fill:rgb(157,157,156);"/>
        <rect x="3163.7" y="3197.7" width="14.2" height="14.2" style="fill:rgb(157,157,156);"/>
        <rect x="3163.7" y="3292.2" width="14.2" height="14.2" style="fill:rgb(157,157,156);"/>
        <rect x="3163.7" y="3386.7" width="14.2" height="14.2" style="fill:rgb(157,157,156);"/>
        <rect x="3163.7" y="3481.2" width="14.2" height="14.2" style="fill:rgb(157,157,156);"/>
        <rect x="3163.7" y="3575.7" width="14.2" height="14.2" style="fill:rgb(157,157,156);"/>
        <rect x="3163.7" y="3670.2" width="14.2" height="14.2" style="fill:rgb(29,29,27);"/>
        <rect x="3163.7" y="3764.6" width="14.2" height="14.2" style="fill:rgb(157,157,156);"/>
        <rect x="3163.7" y="3859.1" width="14.2" height="14.2" style="fill:rgb(157,157,156);"/>
        <rect x="3163.7" y="3953.6" width="14.2" height="14.2" style="fill:rgb(157,157,156);"/>
        <rect x="3163.7" y="4048.1" width="14.2" height="14.2" style="fill:rgb(157,157,156);"/>
        <rect x="3163.7" y="4142.6" width="14.2" height="14.2" style="fill:rgb(157,157,156);"/>
        <rect x="3163.7" y="4237.1" width="14.2" height="14.2" style="fill:rgb(157,157,156);"/>
        <rect x="3163.7" y="4331.6" width="14.2" height="14.2" style="fill:rgb(157,157,156);"/>
        <rect x="3163.7" y="4426.1" width="14.2" height="14.2" style="fill:rgb(29,29,27);"/>
        <rect x="3163.7" y="4520.5" width="14.2" height="14.2" style="fill:rgb(157,157,156);"/>
        <rect x="3163.7" y="4615" width="14.2" height="14.2" style="fill:rgb(157,157,156);"/>
        <rect x="3163.7" y="4709.5" width="14.2" height="14.2" style="fill:rgb(157,157,156);"/>
        <rect x="3163.7" y="4804" width="14.2" height="14.2" style="fill:rgb(157,157,156);"/>
        <rect x="3163.7" y="4898.5" width="14.2" height="14.2" style="fill:rgb(157,157,156);"/>
        <rect x="3163.7" y="4990.7" width="14.2" height="14.2" style="fill:rgb(157,157,156);"/>
        <rect x="3163.7" y="5085.2" width="14.2" height="14.2" style="fill:rgb(29,29,27);"/>
        <rect x="3965.9" y="417.4" width="28.3" height="4724.4" style="fill:rgb(218,218,218);"/>
        <rect x="3973" y="552" width="14.2" height="14.2" style="fill:rgb(157,157,156);"/>
        <rect x="3973" y="457.6" width="14.2" height="14.2" style="fill:rgb(157,157,156);"/>
        <rect x="3973" y="646.5" width="14.2" height="14.2" style="fill:rgb(29,29,27);"/>
        <rect x="3973" y="741" width="14.2" height="14.2" style="fill:rgb(157,157,156);"/>
        <rect x="3973" y="835.5" width="14.2" height="14.2" style="fill:rgb(157,157,156);"/>
        <rect x="3973" y="930" width="14.2" height="14.2" style="fill:rgb(157,157,156);"/>
        <rect x="3973" y="1024.5" width="14.2" height="14.2" style="fill:rgb(157,157,156);"/>
        <rect x="3973" y="1119" width="14.2" height="14.2" style="fill:rgb(157,157,156);"/>
        <rect x="3973" y="1213.5" width="14.2" height="14.2" style="fill:rgb(157,157,156);"/>
        <rect x="3973" y="1308" width="14.2" height="14.2" style="fill:rgb(157,157,156);"/>
        <rect x="3973" y="1402.4" width="14.2" height="14.2" style="fill:rgb(29,29,27);"/>
        <rect x="3973" y="1496.9" width="14.2" height="14.2" style="fill:rgb(157,157,156);"/>
        <rect x="3973" y="1591.4" width="14.2" height="14.2" style="fill:rgb(157,157,156);"/>
        <rect x="3973" y="1685.9" width="14.2" height="14.2" style="fill:rgb(157,157,156);"/>
        <rect x="3973" y="1780.4" width="14.2" height="14.2" style="fill:rgb(157,157,156);"/>
        <rect x="3973" y="1874.9" width="14.2" height="14.2" style="fill:rgb(157,157,156);"/>
        <rect x="3973" y="1969.4" width="14.2" height="14.2" style="fill:rgb(157,157,156);"/>
        <rect x="3973" y="2063.9" width="14.2" height="14.2" style="fill:rgb(157,157,156);"/>
        <rect x="3973" y="2158.3" width="14.2" height="14.2" style="fill:rgb(29,29,27);"/>
        <rect x="3973" y="2252.8" width="14.2" height="14.2" style="fill:rgb(157,157,156);"/>
        <rect x="3973" y="2347.3" width="14.2" height="14.2" style="fill:rgb(157,157,156);"/>
        <rect x="3973" y="2441.8" width="14.2" height="14.2" style="fill:rgb(157,157,156);"/>
        <rect x="3973" y="2536.3" width="14.2" height="14.2" style="fill:rgb(157,157,156);"/>
        <rect x="3973" y="2630.8" width="14.2" height="14.2" style="fill:rgb(157,157,156);"/>
        <rect x="3973" y="2725.3" width="14.2" height="14.2" style="fill:rgb(157,157,156);"/>
        <rect x="3973" y="2819.8" width="14.2" height="14.2" style="fill:rgb(157,157,156);"/>
        <rect x="3973" y="2914.3" width="14.2" height="14.2" style="fill:rgb(29,29,27);"/>
        <rect x="3973" y="3008.7" width="14.2" height="14.2" style="fill:rgb(157,157,156);"/>
        <rect x="3973" y="3103.2" width="14.2" height="14.2" style="fill:rgb(157,157,156);"/>
        <rect x="3973" y="3197.7" width="14.2" height="14.2" style="fill:rgb(157,157,156);"/>
        <rect x="3973" y="3292.2" width="14.2" height="14.2" style="fill:rgb(157,157,156);"/>
        <rect x="3973" y="3386.7" width="14.2" height="14.2" style="fill:rgb(157,157,156);"/>
        <rect x="3973" y="3481.2" width="14.2" height="14.2" style="fill:rgb(157,157,156);"/>
        <rect x="3973" y="3575.7" width="14.2" height="14.2" style="fill:rgb(157,157,156);"/>
        <rect x="3973" y="3670.2" width="14.2" height="14.2" style="fill:rgb(29,29,27);"/>
        <rect x="3973" y="3764.6" width="14.2" height="14.2" style="fill:rgb(157,157,156);"/>
        <rect x="3973" y="3859.1" width="14.2" height="14.2" style="fill:rgb(157,157,156);"/>
        <rect x="3973" y="3953.6" width="14.2" height="14.2" style="fill:rgb(157,157,156);"/>
        <rect x="3973" y="4048.1" width="14.2" height="14.2" style="fill:rgb(157,157,156);"/>
        <rect x="3973" y="4142.6" width="14.2" height="14.2" style="fill:rgb(157,157,156);"/>
        <rect x="3973" y="4237.1" width="14.2" height="14.2" style="fill:rgb(157,157,156);"/>
        <rect x="3973" y="4331.6" width="14.2" height="14.2" style="fill:rgb(157,157,156);"/>
        <rect x="3973" y="4426.1" width="14.2" height="14.2" style="fill:rgb(29,29,27);"/>
        <rect x="3973" y="4520.5" width="14.2" height="14.2" style="fill:rgb(157,157,156);"/>
        <rect x="3973" y="4615" width="14.2" height="14.2" style="fill:rgb(157,157,156);"/>
        <rect x="3973" y="4709.5" width="14.2" height="14.2" style="fill:rgb(157,157,156);"/>
        <rect x="3973" y="4804" width="14.2" height="14.2" style="fill:rgb(157,157,156);"/>
        <rect x="3973" y="4898.5" width="14.2" height="14.2" style="fill:rgb(157,157,156);"/>
        <rect x="3973" y="4990.7" width="14.2" height="14.2" style="fill:rgb(157,157,156);"/>
        <rect x="3973" y="5085.2" width="14.2" height="14.2" style="fill:rgb(29,29,27);"/>
        <rect x="4603.7" y="417.4" width="28.3" height="4724.4" style="fill:rgb(218,218,218);"/>
        <rect x="4610.8" y="552" width="14.2" height="14.2" style="fill:rgb(157,157,156);"/>
        <rect x="4610.8" y="457.6" width="14.2" height="14.2" style="fill:rgb(157,157,156);"/>
        <rect x="4610.8" y="646.5" width="14.2" height="14.2" style="fill:rgb(29,29,27);"/>
        <rect x="4610.8" y="741" width="14.2" height="14.2" style="fill:rgb(157,157,156);"/>
        <rect x="4610.8" y="835.5" width="14.2" height="14.2" style="fill:rgb(157,157,156);"/>
        <rect x="4610.8" y="930" width="14.2" height="14.2" style="fill:rgb(157,157,156);"/>
        <rect x="4610.8" y="1024.5" width="14.2" height="14.2" style="fill:rgb(157,157,156);"/>
        <rect x="4610.8" y="1119" width="14.2" height="14.2" style="fill:rgb(157,157,156);"/>
        <rect x="4610.8" y="1213.5" width="14.2" height="14.2" style="fill:rgb(157,157,156);"/>
        <rect x="4610.8" y="1308" width="14.2" height="14.2" style="fill:rgb(157,157,156);"/>
        <rect x="4610.8" y="1402.4" width="14.2" height="14.2" style="fill:rgb(29,29,27);"/>
        <rect x="4610.8" y="1496.9" width="14.2" height="14.2" style="fill:rgb(157,157,156);"/>
        <rect x="4610.8" y="1591.4" width="14.2" height="14.2" style="fill:rgb(157,157,156);"/>
        <rect x="4610.8" y="1685.9" width="14.2" height="14.2" style="fill:rgb(157,157,156);"/>
        <rect x="4610.8" y="1780.4" width="14.2" height="14.2" style="fill:rgb(157,157,156);"/>
        <rect x="4610.8" y="1874.9" width="14.2" height="14.2" style="fill:rgb(157,157,156);"/>
        <rect x="4610.8" y="1969.4" width="14.2" height="14.2" style="fill:rgb(157,157,156);"/>
        <rect x="4610.8" y="2063.9" width="14.2" height="14.2" style="fill:rgb(157,157,156);"/>
        <rect x="4610.8" y="2158.3" width="14.2" height="14.2" style="fill:rgb(29,29,27);"/>
        <rect x="4610.8" y="2252.8" width="14.2" height="14.2" style="fill:rgb(157,157,156);"/>
        <rect x="4610.8" y="2347.3" width="14.2" height="14.2" style="fill:rgb(157,157,156);"/>
        <rect x="4610.8" y="2441.8" width="14.2" height="14.2" style="fill:rgb(157,157,156);"/>
        <rect x="4610.8" y="2536.3" width="14.2" height="14.2" style="fill:rgb(157,157,156);"/>
        <rect x="4610.8" y="2630.8" width="14.2" height="14.2" style="fill:rgb(157,157,156);"/>
        <rect x="4610.8" y="2725.3" width="14.2" height="14.2" style="fill:rgb(157,157,156);"/>
        <rect x="4610.8" y="2819.8" width="14.2" height="14.2" style="fill:rgb(157,157,156);"/>
        <rect x="4610.8" y="2914.3" width="14.2" height="14.2" style="fill:rgb(29,29,27);"/>
        <rect x="4610.8" y="3008.7" width="14.2" height="14.2" style="fill:rgb(157,157,156);"/>
        <rect x="4610.8" y="3103.2" width="14.2" height="14.2" style="fill:rgb(157,157,156);"/>
        <rect x="4610.8" y="3197.7" width="14.2" height="14.2" style="fill:rgb(157,157,156);"/>
        <rect x="4610.8" y="3292.2" width="14.2" height="14.2" style="fill:rgb(157,157,156);"/>
        <rect x="4610.8" y="3386.7" width="14.2" height="14.2" style="fill:rgb(157,157,156);"/>
        <rect x="4610.8" y="3481.2" width="14.2" height="14.2" style="fill:rgb(157,157,156);"/>
        <rect x="4610.8" y="3575.7" width="14.2" height="14.2" style="fill:rgb(157,157,156);"/>
        <rect x="4610.8" y="3670.2" width="14.2" height="14.2" style="fill:rgb(29,29,27);"/>
        <rect x="4610.8" y="3764.6" width="14.2" height="14.2" style="fill:rgb(157,157,156);"/>
        <rect x="4610.8" y="3859.1" width="14.2" height="14.2" style="fill:rgb(157,157,156);"/>
        <rect x="4610.8" y="3953.6" width="14.2" height="14.2" style="fill:rgb(157,157,156);"/>
        <rect x="4610.8" y="4048.1" width="14.2" height="14.2" style="fill:rgb(157,157,156);"/>
        <rect x="4610.8" y="4142.6" width="14.2" height="14.2" style="fill:rgb(157,157,156);"/>
        <rect x="4610.8" y="4237.1" width="14.2" height="14.2" style="fill:rgb(157,157,156);"/>
        <rect x="4610.8" y="4331.6" width="14.2" height="14.2" style="fill:rgb(157,157,156);"/>
        <rect x="4610.8" y="4426.1" width="14.2" height="14.2" style="fill:rgb(29,29,27);"/>
        <rect x="4610.8" y="4520.5" width="14.2" height="14.2" style="fill:rgb(157,157,156);"/>
        <rect x="4610.8" y="4615" width="14.2" height="14.2" style="fill:rgb(157,157,156);"/>
        <rect x="4610.8" y="4709.5" width="14.2" height="14.2" style="fill:rgb(157,157,156);"/>
        <rect x="4610.8" y="4804" width="14.2" height="14.2" style="fill:rgb(157,157,156);"/>
        <rect x="4610.8" y="4898.5" width="14.2" height="14.2" style="fill:rgb(157,157,156);"/>
        <rect x="4610.8" y="4990.7" width="14.2" height="14.2" style="fill:rgb(157,157,156);"/>
        <rect x="4610.8" y="5085.2" width="14.2" height="14.2" style="fill:rgb(29,29,27);"/>
    </g>
    <g transform="matrix(1,0,0,1,990.3652,5116.7456)">
        <text x="0px" y="0px" style="font-family:'Helvetica';font-size:70.425px;">1</text>
    </g>
    <g transform="matrix(1,0,0,1,990.3652,4457.8394)">
        <text x="0px" y="0px" style="font-family:'Helvetica';font-size:70.425px;">8</text>
    </g>
    <g transform="matrix(1,0,0,1,951.1987,3705.8262)">
        <text x="0px" y="0px" style="font-family:'Helvetica';font-size:70.425px;">16</text>
    </g>
    <rect x="951.2" y="2886.9" width="78.3" height="94.3" style="fill:none;"/>
    <g transform="matrix(1,0,0,1,951.1985,2947.3213)">
        <text x="0px" y="0px" style="font-family:'Helvetica';font-size:70.425px;">24</text>
    </g>
    <g transform="matrix(1,0,0,1,951.1987,2188.6406)">
        <text x="0px" y="0px" style="font-family:'Helvetica';font-size:70.425px;">32</text>
    </g>
    <g transform="matrix(1,0,0,1,951.1987,1437.8723)">
        <text x="0px" y="0px" style="font-family:'Helvetica';font-size:70.425px;">40</text>
    </g>
    <g transform="matrix(1,0,0,1,951.1987,682.8992)">
        <text x="0px" y="0px" style="font-family:'Helvetica';font-size:70.425px;">48</text>
    </g>
    <g transform="matrix(1,0,0,1,1599.6615,5116.7456)">
        <text x="0px" y="0px" style="font-family:'Helvetica';font-size:70.425px;">99</text>
    </g>
    <g transform="matrix(1,0,0,1,1599.6615,4457.8394)">
        <text x="0px" y="0px" style="font-family:'Helvetica';font-size:70.425px;">92</text>
    </g>
    <g transform="matrix(1,0,0,1,1599.6615,3705.8262)">
        <text x="0px" y="0px" style="font-family:'Helvetica';font-size:70.425px;">84</text>
    </g>
    <rect x="1599.7" y="2886.9" width="78.3" height="94.3" style="fill:none;"/>
    <g transform="matrix(1,0,0,1,1599.6614,2947.3213)">
        <text x="0px" y="0px" style="font-family:'Helvetica';font-size:70.425px;">76</text>
    </g>
    <g transform="matrix(1,0,0,1,1599.6615,2188.6406)">
        <text x="0px" y="0px" style="font-family:'Helvetica';font-size:70.425px;">68</text>
    </g>
    <g transform="matrix(1,0,0,1,1599.6615,1437.8723)">
        <text x="0px" y="0px" style="font-family:'Helvetica';font-size:70.425px;">60</text>
    </g>
    <g transform="matrix(1,0,0,1,1599.6615,682.8992)">
        <text x="0px" y="0px" style="font-family:'Helvetica';font-size:70.425px;">52</text>
    </g>
    <g transform="matrix(1,0,0,1,2355.9243,5116.7456)">
        <text x="0px" y="0px" style="font-family:'Helvetica';font-size:70.425px;">100</text>
    </g>
    <g transform="matrix(1,0,0,1,2355.9243,4457.8394)">
        <text x="0px" y="0px" style="font-family:'Helvetica';font-size:70.425px;">107</text>
    </g>
    <g transform="matrix(1,0,0,1,2355.9243,3705.8262)">
        <text x="0px" y="0px" style="font-family:'Helvetica';font-size:70.425px;">1<tspan x="33.974px 73.141px " y="0px 0px ">15</tspan></text>
    </g>
    <rect x="2340" y="2886.9" width="133.5" height="94.3" style="fill:none;"/>
    <g transform="matrix(1,0,0,1,2355.9246,2947.3213)">
        <text x="0px" y="0px" style="font-family:'Helvetica';font-size:70.425px;">123</text>
    </g>
    <g transform="matrix(1,0,0,1,2355.9243,2188.6406)">
        <text x="0px" y="0px" style="font-family:'Helvetica';font-size:70.425px;">131</text>
    </g>
    <g transform="matrix(1,0,0,1,2355.9243,1437.8723)">
        <text x="0px" y="0px" style="font-family:'Helvetica';font-size:70.425px;">139</text>
    </g>
    <g transform="matrix(1,0,0,1,2355.9243,682.8992)">
        <text x="0px" y="0px" style="font-family:'Helvetica';font-size:70.425px;">147</text>
    </g>
    <g transform="matrix(1,0,0,1,2997.325,5116.7456)">
        <text x="0px" y="0px" style="font-family:'Helvetica';font-size:70.425px;">199</text>
    </g>
    <g transform="matrix(1,0,0,1,2997.325,4457.8394)">
        <text x="0px" y="0px" style="font-family:'Helvetica';font-size:70.425px;">191</text>
    </g>
    <g transform="matrix(1,0,0,1,2997.325,3705.8262)">
        <text x="0px" y="0px" style="font-family:'Helvetica';font-size:70.425px;">184</text>
    </g>
    <rect x="2981.4" y="2886.9" width="133.5" height="94.3" style="fill:none;"/>
    <g transform="matrix(1,0,0,1,2997.3252,2947.3213)">
        <text x="0px" y="0px" style="font-family:'Helvetica';font-size:70.425px;">176</text>
    </g>
    <g transform="matrix(1,0,0,1,2997.325,2188.6406)">
        <text x="0px" y="0px" style="font-family:'Helvetica';font-size:70.425px;">168</text>
    </g>
    <g transform="matrix(1,0,0,1,2997.325,1437.8723)">
        <text x="0px" y="0px" style="font-family:'Helvetica';font-size:70.425px;">160</text>
    </g>
    <g transform="matrix(1,0,0,1,2997.325,682.8992)">
        <text x="0px" y="0px" style="font-family:'Helvetica';font-size:70.425px;">152</text>
    </g>
    <g transform="matrix(1,0,0,1,3812.8171,5116.7456)">
        <text x="0px" y="0px" style="font-family:'Helvetica';font-size:70.425px;">200</text>
    </g>
    <g transform="matrix(1,0,0,1,3812.8171,4457.8394)">
        <text x="0px" y="0px" style="font-family:'Helvetica';font-size:70.425px;">207</text>
    </g>
    <g transform="matrix(1,0,0,1,3812.8171,3705.8262)">
        <text x="0px" y="0px" style="font-family:'Helvetica';font-size:70.425px;">215</text>
    </g>
    <rect x="3796.8" y="2886.9" width="133.5" height="94.3" style="fill:none;"/>
    <g transform="matrix(1,0,0,1,3812.8174,2947.3213)">
        <text x="0px" y="0px" style="font-family:'Helvetica';font-size:70.425px;">223</text>
    </g>
    <g transform="matrix(1,0,0,1,3812.8171,2188.6406)">
        <text x="0px" y="0px" style="font-family:'Helvetica';font-size:70.425px;">231</text>
    </g>
    <g transform="matrix(1,0,0,1,3812.8171,1437.8723)">
        <text x="0px" y="0px" style="font-family:'Helvetica';font-size:70.425px;">239</text>
    </g>
    <g transform="matrix(1,0,0,1,3812.8171,682.8992)">
        <text x="0px" y="0px" style="font-family:'Helvetica';font-size:70.425px;">247</text>
    </g>
    <g transform="matrix(1,0,0,1,4443.3467,5116.7456)">
        <text x="0px" y="0px" style="font-family:'Helvetica';font-size:70.425px;">299</text>
    </g>
    <g transform="matrix(1,0,0,1,4443.3467,4457.8394)">
        <text x="0px" y="0px" style="font-family:'Helvetica';font-size:70.425px;">292</text>
    </g>
    <g transform="matrix(1,0,0,1,4443.3467,3705.8262)">
        <text x="0px" y="0px" style="font-family:'Helvetica';font-size:70.425px;">284</text>
    </g>
    <rect x="4427.4" y="2886.9" width="133.5" height="94.3" style="fill:none;"/>
    <g transform="matrix(1,0,0,1,4443.3467,2947.3213)">
        <text x="0px" y="0px" style="font-family:'Helvetica';font-size:70.425px;">276</text>
    </g>
    <g transform="matrix(1,0,0,1,4443.3467,2188.6406)">
        <text x="0px" y="0px" style="font-family:'Helvetica';font-size:70.425px;">268</text>
    </g>
    <g transform="matrix(1,0,0,1,4443.3467,1437.8723)">
        <text x="0px" y="0px" style="font-family:'Helvetica';font-size:70.425px;">260</text>
    </g>
    <g transform="matrix(1,0,0,1,4443.3467,682.8992)">
        <text x="0px" y="0px" style="font-family:'Helvetica';font-size:70.425px;">252</text>
    </g>
    <rect x="2518.8" y="228.4" width="28.3" height="189" style="fill:rgb(112,111,111);"/>
    <rect x="2518.8" y="228.4" width="666.1" height="28.4" style="fill:rgb(112,111,111);"/>
    <rect x="3965.9" y="228.4" width="666.1" height="28.4" style="fill:rgb(112,111,111);"/>
    <rect x="1071.7" y="228.4" width="28.3" height="283.5" style="fill:rgb(112,111,111);"/>
    <rect x="1709.5" y="228.4" width="28.3" height="189" style="fill:rgb(112,111,111);"/>
    <rect x="1071.7" y="228.4" width="666.1" height="28.4" style="fill:rgb(112,111,111);"/>
    <rect x="2518.9" y="5141.8" width="28.3" height="378" style="fill:rgb(112,111,111);"/>
    <rect x="3156.6" y="228.4" width="28.3" height="189" style="fill:rgb(112,111,111);"/>
    <rect x="3156.7" y="5141.8" width="28.3" height="378" style="fill:rgb(112,111,111);"/>
    <rect x="3965.9" y="228.4" width="28.3" height="189" style="fill:rgb(112,111,111);"/>
    <rect x="3966" y="5141.8" width="28.3" height="378" style="fill:rgb(112,111,111);"/>
    <rect x="4603.7" y="228.4" width="28.3" height="189" style="fill:rgb(112,111,111);"/>
    <rect x="1709.6" y="5141.8" width="28.3" height="378" style="fill:rgb(112,111,111);"/>
    <rect x="1709.6" y="5491.4" width="837.6" height="28.4" style="fill:rgb(112,111,111);"/>
    <rect x="3156.7" y="5491.4" width="837.6" height="28.4" style="fill:rgb(112,111,111);"/>
    <path d="M1100.1,5236.3L1100.1,5693.8L648.1,5693.8" style="fill:none;fill-rule:nonzero;stroke:rgb(157,157,156);stroke-width:6px;"/>
    <path d="M1071.7,5236.3L1071.7,5510.4L810.4,5510.4" style="fill:none;fill-rule:nonzero;stroke:rgb(190,22,34);stroke-width:6px;"/>
    <rect x="289.3" y="5625.2" width="358.8" height="482.5" style="fill:rgb(76,76,76);"/>
    <rect x="289.3" y="5133" width="214.9" height="289" style="fill:rgb(76,76,76);"/>
    <rect x="225.6" y="5166.4" width="63.6" height="63.6" style="fill:rgb(76,76,76);"/>
    <rect x="162" y="5191.2" width="63.6" height="14" style="fill:rgb(76,76,76);"/>
    <g transform="matrix(1,0,0,1,318.4017,5885.6045)">
        <text x="0px" y="0px" style="font-family:'Helvetica';font-size:65.144px;fill:white;">Raspberry</text>
    </g>
    <g transform="matrix(1,0,0,1,1305.07594,5950.029025)">
        <g transform="matrix(65.1445,0,0,65.1445,204.546732,0)">
        </g>
        <text x="95.951px" y="0px" style="font-family:'Helvetica';font-size:65.144px;fill:white;">PIR</text>
    </g>
    <g transform="matrix(1,0,0,1,324.7314,5250.7495)">
        <text x="0px" y="0px" style="font-family:'Helvetica';font-size:65.144px;fill:white;">prise</text>
    </g>
    <g transform="matrix(1,0,0,1,306.6314,5328.9492)">
        <text x="0px" y="0px" style="font-family:'Helvetica';font-size:65.144px;fill:white;">5V 2A</text>
    </g>
    <g transform="matrix(1,0,0,1,662.4451,5685.1782)">
        <text x="0px" y="0px" style="font-family:'Helvetica';font-size:48px;fill:rgb(76,76,76);">GND</text>
    </g>
    <g transform="matrix(1,0,0,1,819.3638,5578.9824)">
        <text x="0px" y="0px" style="font-family:'Helvetica';font-size:48px;fill:rgb(76,76,76);">GND</text>
    </g>
    <g transform="matrix(1,0,0,1,819.3636,5495.8311)">
        <text x="0px" y="0px" style="font-family:'Helvetica';font-size:48px;fill:rgb(76,76,76);">5v</text>
    </g>
    <g transform="matrix(1,0,0,1,662.4451,5764.992188)">
        <text x="0px" y="0px" style="font-family:'Helvetica';font-size:48px;fill:rgb(76,76,76);">GPIO18</text>
    </g>
    <g transform="matrix(1,0,0,1,662.4451,5844.849569)">
        <g transform="matrix(48,0,0,48,106.664062,0)">
        </g>
        <text x="0px" y="0px" style="font-family:'Helvetica';font-size:48px;fill:rgb(76,76,76);">GND</text>
    </g>
    <g transform="matrix(1,0,0,1,662.4451,5924.959168)">
        <g transform="matrix(48,0,0,48,58.710938,0)">
        </g>
        <text x="0px" y="0px" style="font-family:'Helvetica';font-size:48px;fill:rgb(76,76,76);">5V</text>
    </g>
    <g transform="matrix(1,0,0,1,662.4451,6006.054553)">
        <g transform="matrix(48,0,0,48,146.71875,0)">
        </g>
        <text x="0px" y="0px" style="font-family:'Helvetica';font-size:48px;fill:rgb(76,76,76);">GPIO4</text>
    </g>
    <path d="M396.7,5422.1L396.7,5519.8L801,5519.8" style="fill:none;fill-rule:nonzero;stroke:rgb(76,76,76);stroke-width:8.5px;"/>
    <rect x="791.7" y="5510.4" width="18.7" height="18.7" style="fill:rgb(76,76,76);"/>
    <path d="M810.4,5529.1L1100.1,5529.1" style="fill:none;fill-rule:nonzero;stroke:rgb(157,157,156);stroke-width:6px;"/>
    <path d="M912.279,5774L648.1,5774" style="fill:none;fill-rule:nonzero;stroke:rgb(255,154,0);stroke-width:6px;"/>
    <g transform="matrix(2.631471,0,0,1,-1057.356483,73.057382)">
        <path d="M912.279,5780.8L648.1,5780.8" style="fill:none;fill-rule:nonzero;stroke:rgb(181,131,95);stroke-width:3.01px;"/>
    </g>
    <g transform="matrix(2.631471,0,0,1,-1057.356483,141.166981)">
        <path d="M912.279,5792.8L648.1,5792.8" style="fill:none;fill-rule:nonzero;stroke:rgb(241,222,17);stroke-width:3.01px;"/>
    </g>
    <g transform="matrix(1,0,0,1,0,222.262366)">
        <path d="M1342.279,5792.8L648.1,5792.8" style="fill:none;fill-rule:nonzero;stroke:rgb(234,29,25);stroke-width:6px;"/>
    </g>
    <g transform="matrix(1,0,0,1,262.338183,141.166981)">
        <path d="M1079.941,5792.8L648.1,5792.8" style="fill:none;fill-rule:nonzero;stroke:rgb(255,154,0);stroke-width:6px;"/>
    </g>
    <path d="M1085.9,5236.3L1085.9,5774L912.279,5774" style="fill:none;fill-rule:nonzero;stroke:rgb(0,150,64);stroke-width:6px;"/>
</svg>
