<?xml version="1.0" encoding="utf-8"?>
<!-- Generator: Adobe Illustrator 28.0.0, SVG Export Plug-In . SVG Version: 6.00 Build 0)  -->
<svg version="1.1" xmlns="http://www.w3.org/2000/svg" xmlns:xlink="http://www.w3.org/1999/xlink" x="0px" y="0px"
	 viewBox="0 0 5447.2 6296.4" style="enable-background:new 0 0 5447.2 6296.4;" xml:space="preserve">
<style type="text/css">
	.st0{fill:#F6F6F6;stroke:#1D1D1B;stroke-width:2.8346;stroke-miterlimit:10;}
	.st1{fill:#DADADA;}
	.st2{fill:#9D9D9C;}
	.st3{fill:#1D1D1B;}
	.st4{font-family:'Helvetica';}
	.st5{font-size:70.4247px;}
	.st6{fill:none;}
	.st7{fill:#706F6F;}
	.st8{fill:none;stroke:#9D9D9C;stroke-width:3;stroke-miterlimit:10;}
	.st9{fill:none;stroke:#BE1622;stroke-width:3;stroke-miterlimit:10;}
	.st10{fill:#FFFFFF;}
	.st11{font-size:65.1445px;}
	.st12{font-size:48px;}
	.st13{fill:none;stroke:#1D1D1B;stroke-width:8.5039;stroke-miterlimit:10;}
	.st14{fill:none;stroke:#009640;stroke-width:3;stroke-miterlimit:10;}
</style>
<g id="carraux">
	<rect x="801" y="1119" class="st0" width="569.8" height="637.8"/>
	<rect x="1438.8" y="1119" class="st0" width="569.8" height="637.8"/>
	<rect x="801" y="1837.1" class="st0" width="569.8" height="637.8"/>
	<rect x="1438.8" y="1837.1" class="st0" width="569.8" height="637.8"/>
	<rect x="801" y="2555.2" class="st0" width="569.8" height="637.8"/>
	<rect x="1438.8" y="2555.2" class="st0" width="569.8" height="637.8"/>
	<rect x="801" y="3273.3" class="st0" width="569.8" height="637.8"/>
	<rect x="1438.8" y="3273.3" class="st0" width="569.8" height="637.8"/>
	<rect x="801" y="3991.4" class="st0" width="569.8" height="637.8"/>
	<rect x="1438.8" y="3991.4" class="st0" width="569.8" height="637.8"/>
	<rect x="801" y="4709.5" class="st0" width="569.8" height="637.8"/>
	<rect x="1438.8" y="4709.5" class="st0" width="569.8" height="637.8"/>
	<path class="st0" d="M1370.8,1038.7H801l0,0c0-248.7,109.4-489.1,258-637.8h0h311.8V1038.7z"/>
	<rect x="1438.8" y="400.9" class="st0" width="569.8" height="637.8"/>
	<rect x="2248.1" y="1119" class="st0" width="569.8" height="637.8"/>
	<rect x="2885.9" y="1119" class="st0" width="569.8" height="637.8"/>
	<rect x="2248.1" y="1837.1" class="st0" width="569.8" height="637.8"/>
	<rect x="2885.9" y="1837.1" class="st0" width="569.8" height="637.8"/>
	<rect x="2248.1" y="2555.2" class="st0" width="569.8" height="637.8"/>
	<rect x="2885.9" y="2555.2" class="st0" width="569.8" height="637.8"/>
	<rect x="2248.1" y="3273.3" class="st0" width="569.8" height="637.8"/>
	<rect x="2885.9" y="3273.3" class="st0" width="569.8" height="637.8"/>
	<rect x="2248.1" y="3991.4" class="st0" width="569.8" height="637.8"/>
	<rect x="2885.9" y="3991.4" class="st0" width="569.8" height="637.8"/>
	<rect x="2248.1" y="4709.5" class="st0" width="569.8" height="637.8"/>
	<rect x="2885.9" y="4709.5" class="st0" width="569.8" height="637.8"/>
	<rect x="2248.1" y="400.9" class="st0" width="569.8" height="637.8"/>
	<rect x="2885.9" y="400.9" class="st0" width="569.8" height="637.8"/>
	<rect x="3695.2" y="1119" class="st0" width="569.8" height="637.8"/>
	<rect x="4333" y="1119" class="st0" width="569.8" height="637.8"/>
	<rect x="3695.2" y="1837.1" class="st0" width="569.8" height="637.8"/>
	<rect x="4333" y="1837.1" class="st0" width="569.8" height="637.8"/>
	<rect x="3695.2" y="2555.2" class="st0" width="569.8" height="637.8"/>
	<rect x="4333" y="2555.2" class="st0" width="569.8" height="637.8"/>
	<rect x="3695.2" y="3273.3" class="st0" width="569.8" height="637.8"/>
	<rect x="4333" y="3273.3" class="st0" width="569.8" height="637.8"/>
	<rect x="3695.2" y="3991.4" class="st0" width="569.8" height="637.8"/>
	<rect x="4333" y="3991.4" class="st0" width="569.8" height="637.8"/>
	<rect x="3695.2" y="4709.5" class="st0" width="569.8" height="637.8"/>
	<rect x="4333" y="4709.5" class="st0" width="569.8" height="637.8"/>
	<rect x="3695.2" y="400.9" class="st0" width="569.8" height="637.8"/>
	<path class="st0" d="M4333,1038.7h569.8l0,0c0-248.7-109.4-489.1-258-637.8h0H4333V1038.7z"/>
</g>
<g id="bandes">
	<rect x="1071.7" y="511.9" class="st1" width="28.3" height="4724.4"/>
	<rect x="1078.8" y="552" class="st2" width="14.2" height="14.2"/>
	<rect x="1078.8" y="646.5" class="st3" width="14.2" height="14.2"/>
	<rect x="1078.8" y="741" class="st2" width="14.2" height="14.2"/>
	<rect x="1078.8" y="835.5" class="st2" width="14.2" height="14.2"/>
	<rect x="1078.8" y="930" class="st2" width="14.2" height="14.2"/>
	<rect x="1078.8" y="1024.5" class="st2" width="14.2" height="14.2"/>
	<rect x="1078.8" y="1119" class="st2" width="14.2" height="14.2"/>
	<rect x="1078.8" y="1213.5" class="st2" width="14.2" height="14.2"/>
	<rect x="1078.8" y="1308" class="st2" width="14.2" height="14.2"/>
	<rect x="1078.8" y="1402.4" class="st3" width="14.2" height="14.2"/>
	<rect x="1078.8" y="1496.9" class="st2" width="14.2" height="14.2"/>
	<rect x="1078.8" y="1591.4" class="st2" width="14.2" height="14.2"/>
	<rect x="1078.8" y="1685.9" class="st2" width="14.2" height="14.2"/>
	<rect x="1078.8" y="1780.4" class="st2" width="14.2" height="14.2"/>
	<rect x="1078.8" y="1874.9" class="st2" width="14.2" height="14.2"/>
	<rect x="1078.8" y="1969.4" class="st2" width="14.2" height="14.2"/>
	<rect x="1078.8" y="2063.9" class="st2" width="14.2" height="14.2"/>
	<rect x="1078.8" y="2158.3" class="st3" width="14.2" height="14.2"/>
	<rect x="1078.8" y="2252.8" class="st2" width="14.2" height="14.2"/>
	<rect x="1078.8" y="2347.3" class="st2" width="14.2" height="14.2"/>
	<rect x="1078.8" y="2441.8" class="st2" width="14.2" height="14.2"/>
	<rect x="1078.8" y="2536.3" class="st2" width="14.2" height="14.2"/>
	<rect x="1078.8" y="2630.8" class="st2" width="14.2" height="14.2"/>
	<rect x="1078.8" y="2725.3" class="st2" width="14.2" height="14.2"/>
	<rect x="1078.8" y="2819.8" class="st2" width="14.2" height="14.2"/>
	<rect x="1078.8" y="2914.3" class="st3" width="14.2" height="14.2"/>
	<rect x="1078.8" y="3008.7" class="st2" width="14.2" height="14.2"/>
	<rect x="1078.8" y="3103.2" class="st2" width="14.2" height="14.2"/>
	<rect x="1078.8" y="3197.7" class="st2" width="14.2" height="14.2"/>
	<rect x="1078.8" y="3292.2" class="st2" width="14.2" height="14.2"/>
	<rect x="1078.8" y="3386.7" class="st2" width="14.2" height="14.2"/>
	<rect x="1078.8" y="3481.2" class="st2" width="14.2" height="14.2"/>
	<rect x="1078.8" y="3575.7" class="st2" width="14.2" height="14.2"/>
	<rect x="1078.8" y="3670.2" class="st3" width="14.2" height="14.2"/>
	<rect x="1078.8" y="3764.6" class="st2" width="14.2" height="14.2"/>
	<rect x="1078.8" y="3859.1" class="st2" width="14.2" height="14.2"/>
	<rect x="1078.8" y="3953.6" class="st2" width="14.2" height="14.2"/>
	<rect x="1078.8" y="4048.1" class="st2" width="14.2" height="14.2"/>
	<rect x="1078.8" y="4142.6" class="st2" width="14.2" height="14.2"/>
	<rect x="1078.8" y="4237.1" class="st2" width="14.2" height="14.2"/>
	<rect x="1078.8" y="4331.6" class="st2" width="14.2" height="14.2"/>
	<rect x="1078.8" y="4426.1" class="st3" width="14.2" height="14.2"/>
	<rect x="1078.8" y="4520.5" class="st2" width="14.2" height="14.2"/>
	<rect x="1078.8" y="4615" class="st2" width="14.2" height="14.2"/>
	<rect x="1078.8" y="4709.5" class="st2" width="14.2" height="14.2"/>
	<rect x="1078.8" y="4804" class="st2" width="14.2" height="14.2"/>
	<rect x="1078.8" y="4898.5" class="st2" width="14.2" height="14.2"/>
	<rect x="1078.8" y="4990.7" class="st2" width="14.2" height="14.2"/>
	<rect x="1078.8" y="5085.2" class="st3" width="14.2" height="14.2"/>
	<rect x="1078.8" y="5179.7" class="st2" width="14.2" height="14.2"/>
	<rect x="1709.5" y="417.4" class="st1" width="28.3" height="4724.4"/>
	<rect x="1716.6" y="552" class="st2" width="14.2" height="14.2"/>
	<rect x="1716.6" y="457.6" class="st2" width="14.2" height="14.2"/>
	<rect x="1716.6" y="646.5" class="st3" width="14.2" height="14.2"/>
	<rect x="1716.6" y="741" class="st2" width="14.2" height="14.2"/>
	<rect x="1716.6" y="835.5" class="st2" width="14.2" height="14.2"/>
	<rect x="1716.6" y="930" class="st2" width="14.2" height="14.2"/>
	<rect x="1716.6" y="1024.5" class="st2" width="14.2" height="14.2"/>
	<rect x="1716.6" y="1119" class="st2" width="14.2" height="14.2"/>
	<rect x="1716.6" y="1213.5" class="st2" width="14.2" height="14.2"/>
	<rect x="1716.6" y="1308" class="st2" width="14.2" height="14.2"/>
	<rect x="1716.6" y="1402.4" class="st3" width="14.2" height="14.2"/>
	<rect x="1716.6" y="1496.9" class="st2" width="14.2" height="14.2"/>
	<rect x="1716.6" y="1591.4" class="st2" width="14.2" height="14.2"/>
	<rect x="1716.6" y="1685.9" class="st2" width="14.2" height="14.2"/>
	<rect x="1716.6" y="1780.4" class="st2" width="14.2" height="14.2"/>
	<rect x="1716.6" y="1874.9" class="st2" width="14.2" height="14.2"/>
	<rect x="1716.6" y="1969.4" class="st2" width="14.2" height="14.2"/>
	<rect x="1716.6" y="2063.9" class="st2" width="14.2" height="14.2"/>
	<rect x="1716.6" y="2158.3" class="st3" width="14.2" height="14.2"/>
	<rect x="1716.6" y="2252.8" class="st2" width="14.2" height="14.2"/>
	<rect x="1716.6" y="2347.3" class="st2" width="14.2" height="14.2"/>
	<rect x="1716.6" y="2441.8" class="st2" width="14.2" height="14.2"/>
	<rect x="1716.6" y="2536.3" class="st2" width="14.2" height="14.2"/>
	<rect x="1716.6" y="2630.8" class="st2" width="14.2" height="14.2"/>
	<rect x="1716.6" y="2725.3" class="st2" width="14.2" height="14.2"/>
	<rect x="1716.6" y="2819.8" class="st2" width="14.2" height="14.2"/>
	<rect x="1716.6" y="2914.3" class="st3" width="14.2" height="14.2"/>
	<rect x="1716.6" y="3008.7" class="st2" width="14.2" height="14.2"/>
	<rect x="1716.6" y="3103.2" class="st2" width="14.2" height="14.2"/>
	<rect x="1716.6" y="3197.7" class="st2" width="14.2" height="14.2"/>
	<rect x="1716.6" y="3292.2" class="st2" width="14.2" height="14.2"/>
	<rect x="1716.6" y="3386.7" class="st2" width="14.2" height="14.2"/>
	<rect x="1716.6" y="3481.2" class="st2" width="14.2" height="14.2"/>
	<rect x="1716.6" y="3575.7" class="st2" width="14.2" height="14.2"/>
	<rect x="1716.6" y="3670.2" class="st3" width="14.2" height="14.2"/>
	<rect x="1716.6" y="3764.6" class="st2" width="14.2" height="14.2"/>
	<rect x="1716.6" y="3859.1" class="st2" width="14.2" height="14.2"/>
	<rect x="1716.6" y="3953.6" class="st2" width="14.2" height="14.2"/>
	<rect x="1716.6" y="4048.1" class="st2" width="14.2" height="14.2"/>
	<rect x="1716.6" y="4142.6" class="st2" width="14.2" height="14.2"/>
	<rect x="1716.6" y="4237.1" class="st2" width="14.2" height="14.2"/>
	<rect x="1716.6" y="4331.6" class="st2" width="14.2" height="14.2"/>
	<rect x="1716.6" y="4426.1" class="st3" width="14.2" height="14.2"/>
	<rect x="1716.6" y="4520.5" class="st2" width="14.2" height="14.2"/>
	<rect x="1716.6" y="4615" class="st2" width="14.2" height="14.2"/>
	<rect x="1716.6" y="4709.5" class="st2" width="14.2" height="14.2"/>
	<rect x="1716.6" y="4804" class="st2" width="14.2" height="14.2"/>
	<rect x="1716.6" y="4898.5" class="st2" width="14.2" height="14.2"/>
	<rect x="1716.6" y="4990.7" class="st2" width="14.2" height="14.2"/>
	<rect x="1716.6" y="5085.2" class="st3" width="14.2" height="14.2"/>
	<rect x="2518.8" y="417.4" class="st1" width="28.3" height="4724.4"/>
	<rect x="2525.9" y="552" class="st2" width="14.2" height="14.2"/>
	<rect x="2525.9" y="457.6" class="st2" width="14.2" height="14.2"/>
	<rect x="2525.9" y="646.5" class="st3" width="14.2" height="14.2"/>
	<rect x="2525.9" y="741" class="st2" width="14.2" height="14.2"/>
	<rect x="2525.9" y="835.5" class="st2" width="14.2" height="14.2"/>
	<rect x="2525.9" y="930" class="st2" width="14.2" height="14.2"/>
	<rect x="2525.9" y="1024.5" class="st2" width="14.2" height="14.2"/>
	<rect x="2525.9" y="1119" class="st2" width="14.2" height="14.2"/>
	<rect x="2525.9" y="1213.5" class="st2" width="14.2" height="14.2"/>
	<rect x="2525.9" y="1308" class="st2" width="14.2" height="14.2"/>
	<rect x="2525.9" y="1402.4" class="st3" width="14.2" height="14.2"/>
	<rect x="2525.9" y="1496.9" class="st2" width="14.2" height="14.2"/>
	<rect x="2525.9" y="1591.4" class="st2" width="14.2" height="14.2"/>
	<rect x="2525.9" y="1685.9" class="st2" width="14.2" height="14.2"/>
	<rect x="2525.9" y="1780.4" class="st2" width="14.2" height="14.2"/>
	<rect x="2525.9" y="1874.9" class="st2" width="14.2" height="14.2"/>
	<rect x="2525.9" y="1969.4" class="st2" width="14.2" height="14.2"/>
	<rect x="2525.9" y="2063.9" class="st2" width="14.2" height="14.2"/>
	<rect x="2525.9" y="2158.3" class="st3" width="14.2" height="14.2"/>
	<rect x="2525.9" y="2252.8" class="st2" width="14.2" height="14.2"/>
	<rect x="2525.9" y="2347.3" class="st2" width="14.2" height="14.2"/>
	<rect x="2525.9" y="2441.8" class="st2" width="14.2" height="14.2"/>
	<rect x="2525.9" y="2536.3" class="st2" width="14.2" height="14.2"/>
	<rect x="2525.9" y="2630.8" class="st2" width="14.2" height="14.2"/>
	<rect x="2525.9" y="2725.3" class="st2" width="14.2" height="14.2"/>
	<rect x="2525.9" y="2819.8" class="st2" width="14.2" height="14.2"/>
	<rect x="2525.9" y="2914.3" class="st3" width="14.2" height="14.2"/>
	<rect x="2525.9" y="3008.7" class="st2" width="14.2" height="14.2"/>
	<rect x="2525.9" y="3103.2" class="st2" width="14.2" height="14.2"/>
	<rect x="2525.9" y="3197.7" class="st2" width="14.2" height="14.2"/>
	<rect x="2525.9" y="3292.2" class="st2" width="14.2" height="14.2"/>
	<rect x="2525.9" y="3386.7" class="st2" width="14.2" height="14.2"/>
	<rect x="2525.9" y="3481.2" class="st2" width="14.2" height="14.2"/>
	<rect x="2525.9" y="3575.7" class="st2" width="14.2" height="14.2"/>
	<rect x="2525.9" y="3670.2" class="st3" width="14.2" height="14.2"/>
	<rect x="2525.9" y="3764.6" class="st2" width="14.2" height="14.2"/>
	<rect x="2525.9" y="3859.1" class="st2" width="14.2" height="14.2"/>
	<rect x="2525.9" y="3953.6" class="st2" width="14.2" height="14.2"/>
	<rect x="2525.9" y="4048.1" class="st2" width="14.2" height="14.2"/>
	<rect x="2525.9" y="4142.6" class="st2" width="14.2" height="14.2"/>
	<rect x="2525.9" y="4237.1" class="st2" width="14.2" height="14.2"/>
	<rect x="2525.9" y="4331.6" class="st2" width="14.2" height="14.2"/>
	<rect x="2525.9" y="4426.1" class="st3" width="14.2" height="14.2"/>
	<rect x="2525.9" y="4520.5" class="st2" width="14.2" height="14.2"/>
	<rect x="2525.9" y="4615" class="st2" width="14.2" height="14.2"/>
	<rect x="2525.9" y="4709.5" class="st2" width="14.2" height="14.2"/>
	<rect x="2525.9" y="4804" class="st2" width="14.2" height="14.2"/>
	<rect x="2525.9" y="4898.5" class="st2" width="14.2" height="14.2"/>
	<rect x="2525.9" y="4990.7" class="st2" width="14.2" height="14.2"/>
	<rect x="2525.9" y="5085.2" class="st3" width="14.2" height="14.2"/>
	<rect x="3156.6" y="417.4" class="st1" width="28.3" height="4724.4"/>
	<rect x="3163.7" y="552" class="st2" width="14.2" height="14.2"/>
	<rect x="3163.7" y="457.6" class="st2" width="14.2" height="14.2"/>
	<rect x="3163.7" y="646.5" class="st3" width="14.2" height="14.2"/>
	<rect x="3163.7" y="741" class="st2" width="14.2" height="14.2"/>
	<rect x="3163.7" y="835.5" class="st2" width="14.2" height="14.2"/>
	<rect x="3163.7" y="930" class="st2" width="14.2" height="14.2"/>
	<rect x="3163.7" y="1024.5" class="st2" width="14.2" height="14.2"/>
	<rect x="3163.7" y="1119" class="st2" width="14.2" height="14.2"/>
	<rect x="3163.7" y="1213.5" class="st2" width="14.2" height="14.2"/>
	<rect x="3163.7" y="1308" class="st2" width="14.2" height="14.2"/>
	<rect x="3163.7" y="1402.4" class="st3" width="14.2" height="14.2"/>
	<rect x="3163.7" y="1496.9" class="st2" width="14.2" height="14.2"/>
	<rect x="3163.7" y="1591.4" class="st2" width="14.2" height="14.2"/>
	<rect x="3163.7" y="1685.9" class="st2" width="14.2" height="14.2"/>
	<rect x="3163.7" y="1780.4" class="st2" width="14.2" height="14.2"/>
	<rect x="3163.7" y="1874.9" class="st2" width="14.2" height="14.2"/>
	<rect x="3163.7" y="1969.4" class="st2" width="14.2" height="14.2"/>
	<rect x="3163.7" y="2063.9" class="st2" width="14.2" height="14.2"/>
	<rect x="3163.7" y="2158.3" class="st3" width="14.2" height="14.2"/>
	<rect x="3163.7" y="2252.8" class="st2" width="14.2" height="14.2"/>
	<rect x="3163.7" y="2347.3" class="st2" width="14.2" height="14.2"/>
	<rect x="3163.7" y="2441.8" class="st2" width="14.2" height="14.2"/>
	<rect x="3163.7" y="2536.3" class="st2" width="14.2" height="14.2"/>
	<rect x="3163.7" y="2630.8" class="st2" width="14.2" height="14.2"/>
	<rect x="3163.7" y="2725.3" class="st2" width="14.2" height="14.2"/>
	<rect x="3163.7" y="2819.8" class="st2" width="14.2" height="14.2"/>
	<rect x="3163.7" y="2914.3" class="st3" width="14.2" height="14.2"/>
	<rect x="3163.7" y="3008.7" class="st2" width="14.2" height="14.2"/>
	<rect x="3163.7" y="3103.2" class="st2" width="14.2" height="14.2"/>
	<rect x="3163.7" y="3197.7" class="st2" width="14.2" height="14.2"/>
	<rect x="3163.7" y="3292.2" class="st2" width="14.2" height="14.2"/>
	<rect x="3163.7" y="3386.7" class="st2" width="14.2" height="14.2"/>
	<rect x="3163.7" y="3481.2" class="st2" width="14.2" height="14.2"/>
	<rect x="3163.7" y="3575.7" class="st2" width="14.2" height="14.2"/>
	<rect x="3163.7" y="3670.2" class="st3" width="14.2" height="14.2"/>
	<rect x="3163.7" y="3764.6" class="st2" width="14.2" height="14.2"/>
	<rect x="3163.7" y="3859.1" class="st2" width="14.2" height="14.2"/>
	<rect x="3163.7" y="3953.6" class="st2" width="14.2" height="14.2"/>
	<rect x="3163.7" y="4048.1" class="st2" width="14.2" height="14.2"/>
	<rect x="3163.7" y="4142.6" class="st2" width="14.2" height="14.2"/>
	<rect x="3163.7" y="4237.1" class="st2" width="14.2" height="14.2"/>
	<rect x="3163.7" y="4331.6" class="st2" width="14.2" height="14.2"/>
	<rect x="3163.7" y="4426.1" class="st3" width="14.2" height="14.2"/>
	<rect x="3163.7" y="4520.5" class="st2" width="14.2" height="14.2"/>
	<rect x="3163.7" y="4615" class="st2" width="14.2" height="14.2"/>
	<rect x="3163.7" y="4709.5" class="st2" width="14.2" height="14.2"/>
	<rect x="3163.7" y="4804" class="st2" width="14.2" height="14.2"/>
	<rect x="3163.7" y="4898.5" class="st2" width="14.2" height="14.2"/>
	<rect x="3163.7" y="4990.7" class="st2" width="14.2" height="14.2"/>
	<rect x="3163.7" y="5085.2" class="st3" width="14.2" height="14.2"/>
	<rect x="3965.9" y="417.4" class="st1" width="28.3" height="4724.4"/>
	<rect x="3973" y="552" class="st2" width="14.2" height="14.2"/>
	<rect x="3973" y="457.6" class="st2" width="14.2" height="14.2"/>
	<rect x="3973" y="646.5" class="st3" width="14.2" height="14.2"/>
	<rect x="3973" y="741" class="st2" width="14.2" height="14.2"/>
	<rect x="3973" y="835.5" class="st2" width="14.2" height="14.2"/>
	<rect x="3973" y="930" class="st2" width="14.2" height="14.2"/>
	<rect x="3973" y="1024.5" class="st2" width="14.2" height="14.2"/>
	<rect x="3973" y="1119" class="st2" width="14.2" height="14.2"/>
	<rect x="3973" y="1213.5" class="st2" width="14.2" height="14.2"/>
	<rect x="3973" y="1308" class="st2" width="14.2" height="14.2"/>
	<rect x="3973" y="1402.4" class="st3" width="14.2" height="14.2"/>
	<rect x="3973" y="1496.9" class="st2" width="14.2" height="14.2"/>
	<rect x="3973" y="1591.4" class="st2" width="14.2" height="14.2"/>
	<rect x="3973" y="1685.9" class="st2" width="14.2" height="14.2"/>
	<rect x="3973" y="1780.4" class="st2" width="14.2" height="14.2"/>
	<rect x="3973" y="1874.9" class="st2" width="14.2" height="14.2"/>
	<rect x="3973" y="1969.4" class="st2" width="14.2" height="14.2"/>
	<rect x="3973" y="2063.9" class="st2" width="14.2" height="14.2"/>
	<rect x="3973" y="2158.3" class="st3" width="14.2" height="14.2"/>
	<rect x="3973" y="2252.8" class="st2" width="14.2" height="14.2"/>
	<rect x="3973" y="2347.3" class="st2" width="14.2" height="14.2"/>
	<rect x="3973" y="2441.8" class="st2" width="14.2" height="14.2"/>
	<rect x="3973" y="2536.3" class="st2" width="14.2" height="14.2"/>
	<rect x="3973" y="2630.8" class="st2" width="14.2" height="14.2"/>
	<rect x="3973" y="2725.3" class="st2" width="14.2" height="14.2"/>
	<rect x="3973" y="2819.8" class="st2" width="14.2" height="14.2"/>
	<rect x="3973" y="2914.3" class="st3" width="14.2" height="14.2"/>
	<rect x="3973" y="3008.7" class="st2" width="14.2" height="14.2"/>
	<rect x="3973" y="3103.2" class="st2" width="14.2" height="14.2"/>
	<rect x="3973" y="3197.7" class="st2" width="14.2" height="14.2"/>
	<rect x="3973" y="3292.2" class="st2" width="14.2" height="14.2"/>
	<rect x="3973" y="3386.7" class="st2" width="14.2" height="14.2"/>
	<rect x="3973" y="3481.2" class="st2" width="14.2" height="14.2"/>
	<rect x="3973" y="3575.7" class="st2" width="14.2" height="14.2"/>
	<rect x="3973" y="3670.2" class="st3" width="14.2" height="14.2"/>
	<rect x="3973" y="3764.6" class="st2" width="14.2" height="14.2"/>
	<rect x="3973" y="3859.1" class="st2" width="14.2" height="14.2"/>
	<rect x="3973" y="3953.6" class="st2" width="14.2" height="14.2"/>
	<rect x="3973" y="4048.1" class="st2" width="14.2" height="14.2"/>
	<rect x="3973" y="4142.6" class="st2" width="14.2" height="14.2"/>
	<rect x="3973" y="4237.1" class="st2" width="14.2" height="14.2"/>
	<rect x="3973" y="4331.6" class="st2" width="14.2" height="14.2"/>
	<rect x="3973" y="4426.1" class="st3" width="14.2" height="14.2"/>
	<rect x="3973" y="4520.5" class="st2" width="14.2" height="14.2"/>
	<rect x="3973" y="4615" class="st2" width="14.2" height="14.2"/>
	<rect x="3973" y="4709.5" class="st2" width="14.2" height="14.2"/>
	<rect x="3973" y="4804" class="st2" width="14.2" height="14.2"/>
	<rect x="3973" y="4898.5" class="st2" width="14.2" height="14.2"/>
	<rect x="3973" y="4990.7" class="st2" width="14.2" height="14.2"/>
	<rect x="3973" y="5085.2" class="st3" width="14.2" height="14.2"/>
	<rect x="4603.7" y="417.4" class="st1" width="28.3" height="4724.4"/>
	<rect x="4610.8" y="552" class="st2" width="14.2" height="14.2"/>
	<rect x="4610.8" y="457.6" class="st2" width="14.2" height="14.2"/>
	<rect x="4610.8" y="646.5" class="st3" width="14.2" height="14.2"/>
	<rect x="4610.8" y="741" class="st2" width="14.2" height="14.2"/>
	<rect x="4610.8" y="835.5" class="st2" width="14.2" height="14.2"/>
	<rect x="4610.8" y="930" class="st2" width="14.2" height="14.2"/>
	<rect x="4610.8" y="1024.5" class="st2" width="14.2" height="14.2"/>
	<rect x="4610.8" y="1119" class="st2" width="14.2" height="14.2"/>
	<rect x="4610.8" y="1213.5" class="st2" width="14.2" height="14.2"/>
	<rect x="4610.8" y="1308" class="st2" width="14.2" height="14.2"/>
	<rect x="4610.8" y="1402.4" class="st3" width="14.2" height="14.2"/>
	<rect x="4610.8" y="1496.9" class="st2" width="14.2" height="14.2"/>
	<rect x="4610.8" y="1591.4" class="st2" width="14.2" height="14.2"/>
	<rect x="4610.8" y="1685.9" class="st2" width="14.2" height="14.2"/>
	<rect x="4610.8" y="1780.4" class="st2" width="14.2" height="14.2"/>
	<rect x="4610.8" y="1874.9" class="st2" width="14.2" height="14.2"/>
	<rect x="4610.8" y="1969.4" class="st2" width="14.2" height="14.2"/>
	<rect x="4610.8" y="2063.9" class="st2" width="14.2" height="14.2"/>
	<rect x="4610.8" y="2158.3" class="st3" width="14.2" height="14.2"/>
	<rect x="4610.8" y="2252.8" class="st2" width="14.2" height="14.2"/>
	<rect x="4610.8" y="2347.3" class="st2" width="14.2" height="14.2"/>
	<rect x="4610.8" y="2441.8" class="st2" width="14.2" height="14.2"/>
	<rect x="4610.8" y="2536.3" class="st2" width="14.2" height="14.2"/>
	<rect x="4610.8" y="2630.8" class="st2" width="14.2" height="14.2"/>
	<rect x="4610.8" y="2725.3" class="st2" width="14.2" height="14.2"/>
	<rect x="4610.8" y="2819.8" class="st2" width="14.2" height="14.2"/>
	<rect x="4610.8" y="2914.3" class="st3" width="14.2" height="14.2"/>
	<rect x="4610.8" y="3008.7" class="st2" width="14.2" height="14.2"/>
	<rect x="4610.8" y="3103.2" class="st2" width="14.2" height="14.2"/>
	<rect x="4610.8" y="3197.7" class="st2" width="14.2" height="14.2"/>
	<rect x="4610.8" y="3292.2" class="st2" width="14.2" height="14.2"/>
	<rect x="4610.8" y="3386.7" class="st2" width="14.2" height="14.2"/>
	<rect x="4610.8" y="3481.2" class="st2" width="14.2" height="14.2"/>
	<rect x="4610.8" y="3575.7" class="st2" width="14.2" height="14.2"/>
	<rect x="4610.8" y="3670.2" class="st3" width="14.2" height="14.2"/>
	<rect x="4610.8" y="3764.6" class="st2" width="14.2" height="14.2"/>
	<rect x="4610.8" y="3859.1" class="st2" width="14.2" height="14.2"/>
	<rect x="4610.8" y="3953.6" class="st2" width="14.2" height="14.2"/>
	<rect x="4610.8" y="4048.1" class="st2" width="14.2" height="14.2"/>
	<rect x="4610.8" y="4142.6" class="st2" width="14.2" height="14.2"/>
	<rect x="4610.8" y="4237.1" class="st2" width="14.2" height="14.2"/>
	<rect x="4610.8" y="4331.6" class="st2" width="14.2" height="14.2"/>
	<rect x="4610.8" y="4426.1" class="st3" width="14.2" height="14.2"/>
	<rect x="4610.8" y="4520.5" class="st2" width="14.2" height="14.2"/>
	<rect x="4610.8" y="4615" class="st2" width="14.2" height="14.2"/>
	<rect x="4610.8" y="4709.5" class="st2" width="14.2" height="14.2"/>
	<rect x="4610.8" y="4804" class="st2" width="14.2" height="14.2"/>
	<rect x="4610.8" y="4898.5" class="st2" width="14.2" height="14.2"/>
	<rect x="4610.8" y="4990.7" class="st2" width="14.2" height="14.2"/>
	<rect x="4610.8" y="5085.2" class="st3" width="14.2" height="14.2"/>
</g>
<g id="indexes">
	<text transform="matrix(1 0 0 1 990.3652 5116.7456)" class="st4 st5">1</text>
	<text transform="matrix(1 0 0 1 990.3652 4457.8394)" class="st4 st5">8</text>
	<text transform="matrix(1 0 0 1 951.1987 3705.8264)" class="st4 st5">16</text>
	<rect x="951.2" y="2886.9" class="st6" width="78.3" height="94.3"/>
	<text transform="matrix(1 0 0 1 951.1985 2947.3215)" class="st4 st5">24</text>
	<text transform="matrix(1 0 0 1 951.1987 2188.6409)" class="st4 st5">32</text>
	<text transform="matrix(1 0 0 1 951.1987 1437.8727)" class="st4 st5">40</text>
	<text transform="matrix(1 0 0 1 951.1987 682.8994)" class="st4 st5">48</text>
	<text transform="matrix(1 0 0 1 1599.6615 5116.7456)" class="st4 st5">99</text>
	<text transform="matrix(1 0 0 1 1599.6615 4457.8394)" class="st4 st5">92</text>
	<text transform="matrix(1 0 0 1 1599.6615 3705.8264)" class="st4 st5">84</text>
	<rect x="1599.7" y="2886.9" class="st6" width="78.3" height="94.3"/>
	<text transform="matrix(1 0 0 1 1599.6614 2947.3215)" class="st4 st5">76</text>
	<text transform="matrix(1 0 0 1 1599.6615 2188.6409)" class="st4 st5">68</text>
	<text transform="matrix(1 0 0 1 1599.6615 1437.8727)" class="st4 st5">60</text>
	<text transform="matrix(1 0 0 1 1599.6615 682.8994)" class="st4 st5">52</text>
	<text transform="matrix(1 0 0 1 2355.9243 5116.7456)" class="st4 st5">100</text>
	<text transform="matrix(1 0 0 1 2355.9243 4457.8394)" class="st4 st5">107</text>
	<text transform="matrix(1 0 0 1 2355.9243 3705.8264)" class="st4 st5">115</text>
	<rect x="2340" y="2886.9" class="st6" width="133.5" height="94.3"/>
	<text transform="matrix(1 0 0 1 2355.9246 2947.3215)" class="st4 st5">123</text>
	<text transform="matrix(1 0 0 1 2355.9243 2188.6409)" class="st4 st5">131</text>
	<text transform="matrix(1 0 0 1 2355.9243 1437.8727)" class="st4 st5">139</text>
	<text transform="matrix(1 0 0 1 2355.9243 682.8994)" class="st4 st5">147</text>
	<text transform="matrix(1 0 0 1 2997.325 5116.7456)" class="st4 st5">199</text>
	<text transform="matrix(1 0 0 1 2997.325 4457.8394)" class="st4 st5">191</text>
	<text transform="matrix(1 0 0 1 2997.325 3705.8264)" class="st4 st5">184</text>
	<rect x="2981.4" y="2886.9" class="st6" width="133.5" height="94.3"/>
	<text transform="matrix(1 0 0 1 2997.3252 2947.3215)" class="st4 st5">176</text>
	<text transform="matrix(1 0 0 1 2997.325 2188.6409)" class="st4 st5">168</text>
	<text transform="matrix(1 0 0 1 2997.325 1437.8727)" class="st4 st5">160</text>
	<text transform="matrix(1 0 0 1 2997.325 682.8994)" class="st4 st5">152</text>
	<text transform="matrix(1 0 0 1 3812.8171 5116.7456)" class="st4 st5">200</text>
	<text transform="matrix(1 0 0 1 3812.8171 4457.8394)" class="st4 st5">207</text>
	<text transform="matrix(1 0 0 1 3812.8171 3705.8264)" class="st4 st5">215</text>
	<rect x="3796.8" y="2886.9" class="st6" width="133.5" height="94.3"/>
	<text transform="matrix(1 0 0 1 3812.8174 2947.3215)" class="st4 st5">223</text>
	<text transform="matrix(1 0 0 1 3812.8171 2188.6409)" class="st4 st5">231</text>
	<text transform="matrix(1 0 0 1 3812.8171 1437.8727)" class="st4 st5">239</text>
	<text transform="matrix(1 0 0 1 3812.8171 682.8994)" class="st4 st5">247</text>
	<text transform="matrix(1 0 0 1 4443.3467 5116.7456)" class="st4 st5">299</text>
	<text transform="matrix(1 0 0 1 4443.3467 4457.8394)" class="st4 st5">292</text>
	<text transform="matrix(1 0 0 1 4443.3467 3705.8264)" class="st4 st5">284</text>
	<rect x="4427.4" y="2886.9" class="st6" width="133.5" height="94.3"/>
	<text transform="matrix(1 0 0 1 4443.3467 2947.3215)" class="st4 st5">276</text>
	<text transform="matrix(1 0 0 1 4443.3467 2188.6409)" class="st4 st5">268</text>
	<text transform="matrix(1 0 0 1 4443.3467 1437.8727)" class="st4 st5">260</text>
	<text transform="matrix(1 0 0 1 4443.3467 2091.3628)" class="st4 st5">267</text>
	<text transform="matrix(1 0 0 1 4443.3467 1340.5946)" class="st4 st5">259</text>
	<text transform="matrix(1 0 0 1 4443.3467 682.8994)" class="st4 st5">252</text>
</g>
<g id="cables">
	<rect x="2518.8" y="228.4" class="st7" width="28.3" height="189"/>
	<rect x="2518.8" y="228.4" class="st7" width="666.1" height="28.4"/>
	<rect x="3965.9" y="228.4" class="st7" width="666.1" height="28.4"/>
	<rect x="1071.7" y="228.4" class="st7" width="28.3" height="283.5"/>
	<rect x="1709.5" y="228.4" class="st7" width="28.3" height="189"/>
	<rect x="1071.7" y="228.4" class="st7" width="666.1" height="28.4"/>
	
		<rect x="2518.8" y="5141.8" transform="matrix(-1 -1.224647e-16 1.224647e-16 -1 5066.0122 10661.5732)" class="st7" width="28.3" height="378"/>
	<rect x="3156.6" y="228.4" class="st7" width="28.3" height="189"/>
	
		<rect x="3156.6" y="5141.8" transform="matrix(-1 -1.224647e-16 1.224647e-16 -1 6341.6025 10661.5732)" class="st7" width="28.3" height="378"/>
	<rect x="3965.9" y="228.4" class="st7" width="28.3" height="189"/>
	
		<rect x="3965.9" y="5141.8" transform="matrix(-1 -1.224647e-16 1.224647e-16 -1 7960.1855 10661.5732)" class="st7" width="28.3" height="378"/>
	<rect x="4603.7" y="228.4" class="st7" width="28.3" height="189"/>
	
		<rect x="1709.5" y="5141.8" transform="matrix(-1 -1.224647e-16 1.224647e-16 -1 3447.4294 10661.5732)" class="st7" width="28.3" height="378"/>
	
		<rect x="1709.5" y="5491.4" transform="matrix(-1 -1.224647e-16 1.224647e-16 -1 4256.7207 11011.1504)" class="st7" width="837.6" height="28.4"/>
	
		<rect x="3156.6" y="5491.4" transform="matrix(-1 -1.224647e-16 1.224647e-16 -1 7150.894 11011.1504)" class="st7" width="837.6" height="28.4"/>
	<polyline class="st8" points="1100.1,5236.3 1100.1,5519.8 1100.1,5693.8 648.1,5693.8 	"/>
	<polyline class="st9" points="1071.7,5236.3 1071.7,5510.4 810.4,5510.4 	"/>
	<rect x="289.3" y="5625.2" class="st3" width="358.8" height="482.5"/>
	<rect x="289.3" y="5133" class="st3" width="214.9" height="289"/>
	<rect x="225.6" y="5166.4" class="st3" width="63.6" height="63.6"/>
	<rect x="162" y="5191.2" class="st3" width="63.6" height="14"/>
	<text transform="matrix(1 0 0 1 318.4017 5885.6045)" class="st10 st4 st11">Raspberry</text>
	<text transform="matrix(1 0 0 1 324.7314 5250.7495)"><tspan x="0" y="0" class="st10 st4 st11">prise </tspan><tspan x="-18.1" y="78.2" class="st10 st4 st11">5V 2A</tspan></text>
	<text transform="matrix(1 0 0 1 662.4451 5684.1782)" class="st3 st4 st12">GND</text>
	<text transform="matrix(1 0 0 1 819.3638 5578.9824)" class="st3 st4 st12">GND</text>
	<text transform="matrix(1 0 0 1 819.3636 5495.8311)" class="st3 st4 st12">5v</text>
	<text transform="matrix(1 0 0 1 662.4451 5779.1836)" class="st3 st4 st12">GPIO18</text>
	<polyline class="st13" points="396.7,5422.1 396.7,5519.8 801,5519.8 	"/>
	<rect x="791.7" y="5510.4" class="st3" width="18.7" height="18.7"/>
	<line class="st8" x1="810.4" y1="5529.1" x2="1100.1" y2="5529.1"/>
	<polyline class="st14" points="1085.9,5236.3 1085.9,5519.8 1085.9,5792.8 648.1,5792.8 	"/>
</g>
</svg>
